<svg xmlns="http://www.w3.org/2000/svg" xmlns:xlink="http://www.w3.org/1999/xlink" viewBox="0,0,256,256" width="26px" height="26px"><g fill="#1b3474" fill-rule="nonzero" stroke="none" stroke-width="1" stroke-linecap="butt" stroke-linejoin="miter" stroke-miterlimit="10" stroke-dasharray="" stroke-dashoffset="0" font-family="none" font-weight="none" font-size="none" text-anchor="none" style="mix-blend-mode: normal"><g transform="scale(9.84615,9.84615)"><path d="M1.8125,1c-0.44141,0 -0.8125,0.36328 -0.8125,0.8125v22.375c0,0.44922 0.37109,0.8125 0.8125,0.8125h22.375c0.44141,0 0.8125,-0.36328 0.8125,-0.8125v-22.375c0,-0.44922 -0.37109,-0.8125 -0.8125,-0.8125zM11,5c3.3125,0 6,2.6875 6,6c0,1.29688 -0.42578,2.48828 -1.125,3.46875l5.25,5.21875c0.125,0.12109 0.10156,0.49219 -0.4375,1.03125c-0.53906,0.53906 -0.85937,0.54688 -1,0.40625c-0.14062,-0.14062 -5.21875,-5.25 -5.21875,-5.25c-0.98047,0.69922 -2.17187,1.125 -3.46875,1.125c-3.3125,0 -6,-2.6875 -6,-6c0,-3.3125 2.6875,-6 6,-6zM11,7c-2.21094,0 -4,1.78906 -4,4c0,2.21094 1.78906,4 4,4c2.21094,0 4,-1.78906 4,-4c0,-2.21094 -1.78906,-4 -4,-4z"></path></g></g></svg>